<?xml version="1.0" encoding="utf-8"?>
<!-- Generator: Adobe Illustrator 15.0.0, SVG Export Plug-In . SVG Version: 6.00 Build 0)  -->
<!DOCTYPE svg PUBLIC "-//W3C//DTD SVG 1.1//EN" "http://www.w3.org/Graphics/SVG/1.1/DTD/svg11.dtd">
<svg version="1.1" id="Layer_1" xmlns="http://www.w3.org/2000/svg" xmlns:xlink="http://www.w3.org/1999/xlink" x="0px" y="0px"
	 width="100px" height="100px" viewBox="0 0 100 100" enable-background="new 0 0 100 100" xml:space="preserve">
<g>
	<polygon fill="#FFFFFF" points="67.712,99.97 7.529,83.168 1.001,19.082 67.673,31.444 	"/>
	<path fill="#B31A02" d="M98.202,8.748L67.673,31.444L1.001,19.082L39.508,0.058L98.202,8.748z"/>
	<path fill="#730C01" d="M95.48,68.838L67.712,99.97l-0.039-68.526L98.202,8.748L95.48,68.838z"/>
	<g>
		<path d="M55.716,65.439l0.267,12.824l6.522-11.207l2.646,0.631l-7.014,11.586l7.266,17.434l0.012,0.023l-2.6-0.727l-0.01-0.023
			l-5.98-14.614l-0.751,1.159l0.241,11.641v0.021l-1.873-0.524l-0.002-0.021l-0.69-28.673L55.716,65.439z"/>
		<path d="M50.508,64.686l0.946,1.123l0.12,4.299l-0.938-1.469l-1.04-1.16l-1.092-0.817l-1.1-0.455l-1.24-0.052l-1.119,0.438
			l-0.979,0.873l-0.818,1.26l-0.642,1.588l-0.447,1.865l-0.237,2.098l-0.013,2.277l0.217,2.295l0.423,2.199l0.606,2.057l0.767,1.856
			l0.906,1.61l1.023,1.313l1.124,0.964l1.202,0.562l1.069,0.107l1.019-0.265l0.945-0.627l0.854-0.979l0.115,4.06l-0.891,0.565
			l-0.798,0.271L50.326,92.6l-0.996,0.086l-0.985-0.15l-1.542-0.708l-0.576-0.476l-0.881-0.728L44,88.986l-1.202-2.017l-1.028-2.341
			l-0.82-2.613l-0.578-2.83l-0.3-3l0.012-3.014l0.323-2.74l0.612-2.414l0.874-2.031l1.111-1.592l1.319-1.093l1.5-0.536l1.647,0.079
			l2.041,0.976L50.508,64.686z"/>
		<g>
			<path d="M29.032,58.777l1.519,0.053l1.565,0.681l1.503,1.246l1.4,1.736l1.258,2.147l1.074,2.482l0.854,2.736l0.597,2.916
				l0.308,3.012l-0.004,2.982l-0.306,2.64l-0.574,2.253l-0.811,1.837l-1.018,1.392l-1.194,0.91l-0.806,0.24l-0.538,0.16
				l-1.469-0.145l-1.496-0.688l-0.572-0.471L29.468,86.2L28.142,84.6l-1.199-1.977l-1.041-2.309l-0.852-2.592l-0.63-2.826
				l-0.374-3.02l-0.069-2.885l0.23-2.646L24.715,64l0.761-1.994l0.991-1.576l1.194-1.098L29.032,58.777z"/>
			<path fill="#FFFFFF" d="M32.194,84.93l-1.13-0.523l-1.086-0.91l-1.018-1.252l-0.923-1.553l-0.804-1.807l-0.659-2.021
				l-0.485-2.197l-0.284-2.33l-0.056-2.228l0.157-2.047l0.361-1.822l0.556-1.551l0.74-1.225l0.912-0.849l1.073-0.423l1.22,0.058
				l1.255,0.545l1.173,0.972l1.067,1.342l0.939,1.654l0.791,1.906l0.623,2.1l0.437,2.235l0.231,2.31l0.004,2.295l-0.23,2.041
				l-0.437,1.759L36,82.852l-0.774,1.104l-0.908,0.732L33.3,85.021L32.194,84.93z"/>
		</g>
		<path d="M16.702,56.146l1.763,0.42l2.046,24.656l4.168,1.146l0.229,3.021l0.001,0.021l-5.833-1.632l-0.002-0.021L16.702,56.146z"
			/>
		<g>
			<path d="M14.972,81.716l-0.734,0.312l-1.583-0.063L12.57,81.96l-3.053-0.853L9.495,81.1l-0.002-0.021L6.7,53.764l0.022,0.006
				l1.651,0.395l1.914,0.771l0.902,0.67l0.832,0.91l0.737,1.182l0.618,1.486l0.475,1.822l0.307,2.188l0.043,1.541l-0.15,1.441
				l-0.344,1.176l-0.534,0.746l0.007,0.073l0.611,0.486l0.577,0.685l1.011,1.838l0.75,2.239l0.408,2.379l0.062,1.843l-0.154,1.488
				l-0.341,1.16l-0.5,0.855L14.972,81.716z"/>
			<path fill="#FFFFFF" d="M9.918,69.344l1.035,0.271l1.189,0.49l1.18,0.984l0.522,0.727l0.442,0.902l0.336,1.1l0.204,1.312
				l0.046,1.28l-0.109,0.992l-0.241,0.733l-0.352,0.509l-0.943,0.447l-1.12-0.111l-1.267-0.35L9.918,69.344z"/>
			<path fill="#FFFFFF" d="M8.725,57.352l0.473,0.115l1.147,0.443l0.992,0.896l0.415,0.688l0.348,0.882l0.271,1.103l0.186,1.351
				l0.067,1.337l-0.073,1.021l-0.195,0.744l-0.301,0.504l-0.865,0.42l-1.112-0.125l-0.431-0.109L8.725,57.352z"/>
		</g>
		<g>
			<path d="M52.659,61.259l-4.48-1.044l-0.988-29.628l4.792,0.912l2.629,0.737l2.484,1.189l2.274,1.634l2,2.066l1.661,2.484
				l1.262,2.882l0.803,3.258l0.288,3.606l-0.25,3.532l-0.745,2.896l-1.183,2.284l-1.562,1.703l-1.887,1.146L57.6,61.53l-2.383,0.105
				L52.659,61.259z"/>
			<path fill="#FFFFFF" d="M50.171,34.675l1.011,0.198l2.172,0.566l2.066,0.857l1.903,1.173l1.684,1.517l1.409,1.883l1.078,2.27
				l0.695,2.67l0.262,3.084l-0.204,2.943l-0.636,2.312l-1.01,1.74l-1.33,1.219l-1.595,0.754l-1.81,0.339l-1.975-0.026l-2.086-0.344
				l-0.977-0.223L50.171,34.675z"/>
		</g>
		<path d="M45.051,59.484l-11.478-2.676l-1.68-29.129l12.019,2.285l0.136,3.515l-9.217-1.799l0.446,8.368l8.831,1.834l0.132,3.38
			l-8.784-1.867l0.578,10.833l8.895,2.03L45.051,59.484z"/>
		<g>
			<path d="M25.176,42.511l-1.062,0.086l7.404,13.733l-3.142-0.732l-6.936-13.24l-1.067-0.23l0.92,11.819l-2.515-0.588L16.431,24.74
				l3.187,0.604l2.895,0.739l1.446,0.688l1.393,1.05l1.291,1.574l1,1.897l0.677,2.083l0.323,2.136l0.004,1.528l-0.181,1.391
				l-0.355,1.23l-0.517,1.045l-0.668,0.838l-0.811,0.609L25.176,42.511z"/>
			<path fill="#FFFFFF" d="M19.316,28.571l0.698,0.136l2.013,0.568l1.917,1.107l0.818,0.832l0.67,1.055l0.479,1.308l0.247,1.583
				l-0.024,1.548l-0.284,1.159l-0.502,0.818l-0.679,0.526l-1.733,0.366l-1.968-0.239l-0.826-0.174L19.316,28.571z"/>
		</g>
		<path d="M13.386,24.159l0.294,3.389l-7.348-1.435l0.8,8.127l7.016,1.458l0.284,3.265L7.45,37.478l1.332,13.549l-2.397-0.56
			l-0.022-0.006L3.481,22.276l0.024,0.004L13.386,24.159z"/>
		<path fill="#FFFFFF" d="M62.805,95.98l-6.49-1.813l-0.244-11.64l0.753-1.16L62.805,95.98z"/>
	</g>
</g>
</svg>
